0
SECTION
2
HEADER
9
$INSUNITS
70
4
9
$ACADVER
1
AC1014
9
$HANDSEED
5
FFFF
0
ENDSEC
0
SECTION
2
TABLES
0
TABLE
2
VPORT
5
8
100
AcDbSymbolTable
0
ENDTAB
0
TABLE
2
LTYPE
5
5
100
AcDbSymbolTable
0
LTYPE
5
14
100
AcDbSymbolTableRecord
100
AcDbLinetypeTableRecord
2
BYBLOCK
70
0
0
LTYPE
5
15
100
AcDbSymbolTableRecord
100
AcDbLinetypeTableRecord
2
BYLAYER
70
0
0
LTYPE
5
16
100
AcDbSymbolTableRecord
100
AcDbLinetypeTableRecord
2
DASHED
70
0
3
Dashed __ __ __ __ __ __ __ __ __ __ __ __ __ _
72
65
73
2
40
0.75
49
0.5
74
0
49
-0.25
74
0
0
ENDTAB
0
TABLE
2
LAYER
5
2
100
AcDbSymbolTable
70
2
0
LAYER
5
50
100
AcDbSymbolTableRecord
100
AcDbLayerTableRecord
2
0
70
0
62
7
6
CONTINUOUS
0
ENDTAB
0
TABLE
2
STYLE
5
3
100
AcDbSymbolTable
70
1
0
STYLE
5
11
100
AcDbSymbolTableRecord
100
AcDbTextStyleTableRecord
2
STANDARD
70
0
0
ENDTAB
0
TABLE
2
VIEW
5
6
100
AcDbSymbolTable
70
0
0
ENDTAB
0
TABLE
2
UCS
5
7
100
AcDbSymbolTable
70
0
0
ENDTAB
0
TABLE
2
APPID
5
9
100
AcDbSymbolTable
70
2
0
APPID
5
12
100
AcDbSymbolTableRecord
100
AcDbRegAppTableRecord
2
ACAD
70
0
0
ENDTAB
0
TABLE
2
DIMSTYLE
5
A
100
AcDbSymbolTable
70
1
0
ENDTAB
0
TABLE
2
BLOCK_RECORD
5
1
100
AcDbSymbolTable
70
1
0
BLOCK_RECORD
5
1F
100
AcDbSymbolTableRecord
100
AcDbBlockTableRecord
2
*MODEL_SPACE
0
BLOCK_RECORD
5
1B
100
AcDbSymbolTableRecord
100
AcDbBlockTableRecord
2
*PAPER_SPACE
0
ENDTAB
0
ENDSEC
0
SECTION
2
BLOCKS
0
BLOCK
5
20
100
AcDbEntity
100
AcDbBlockBegin
2
*MODEL_SPACE
0
ENDBLK
5
21
100
AcDbEntity
100
AcDbBlockEnd
0
BLOCK
5
1C
100
AcDbEntity
100
AcDbBlockBegin
2
*PAPER_SPACE
0
ENDBLK
5
1D
100
AcDbEntity
100
AcDbBlockEnd
0
ENDSEC
0
SECTION
2
ENTITIES
0
SPLINE
5
100
100
AcDbEntity
8
0
100
AcDbSpline
70
2
71
3
72
14
73
10
74
0
42
0.000000001
43
0.0000000001
44
0.0000000001
40
0
40
0
40
0
40
0
40
1
40
1
40
2
40
2
40
3
40
3
40
4
40
4
40
4
40
4
10
57.273613147824165
20
46.066520672253397
30
0
10
57.273613147824165
20
45.23809354750658
30
0
10
56.60204027256863
20
44.566520672253588
30
0
10
54.945186023077667
20
44.566520672253588
30
0
10
54.273613147824669
20
45.23809354750658
30
0
10
54.273613147824669
20
46.894947796997599
30
0
10
54.945186023077667
20
47.566520672253063
30
0
10
56.60204027256863
20
47.566520672253063
30
0
10
57.273613147824165
20
46.894947796997599
30
0
10
57.273613147824165
20
46.066520672253397
30
0
0
SPLINE
5
101
100
AcDbEntity
8
0
100
AcDbSpline
70
2
71
3
72
14
73
10
74
0
42
0.000000001
43
0.0000000001
44
0.0000000001
40
0
40
0
40
0
40
0
40
1
40
1
40
2
40
2
40
3
40
3
40
4
40
4
40
4
40
4
10
87.273613147826339
20
36.06652067225302
30
0
10
87.273613147826339
20
35.238093547506352
30
0
10
86.602040272570832
20
34.566520672253354
30
0
10
84.945186023079842
20
34.566520672253354
30
0
10
84.273613147826836
20
35.238093547506352
30
0
10
84.273613147826836
20
36.894947796998522
30
0
10
84.945186023079842
20
37.566520672252743
30
0
10
86.602040272570832
20
37.566520672252743
30
0
10
87.273613147826339
20
36.894947796998522
30
0
10
87.273613147826339
20
36.06652067225302
30
0
0
SPLINE
5
102
100
AcDbEntity
8
0
100
AcDbSpline
70
2
71
3
72
14
73
10
74
0
42
0.000000001
43
0.0000000001
44
0.0000000001
40
0
40
0
40
0
40
0
40
1
40
1
40
2
40
2
40
3
40
3
40
4
40
4
40
4
40
4
10
57.273613147824165
20
26.066520672253965
30
0
10
57.273613147824165
20
25.238093547507255
30
0
10
56.60204027256863
20
24.566520672252985
30
0
10
54.945186023077667
20
24.566520672252985
30
0
10
54.273613147824669
20
25.238093547507255
30
0
10
54.273613147824669
20
26.894947796998167
30
0
10
54.945186023077667
20
27.566520672253752
30
0
10
56.60204027256863
20
27.566520672253752
30
0
10
57.273613147824165
20
26.894947796998167
30
0
10
57.273613147824165
20
26.066520672253965
30
0
0
LINE
5
103
100
AcDbEntity
8
0
100
AcDbLine
10
153.09158985911355
20
14.349597932417764
30
0
11
19.091589859113547
21
14.349597932417746
31
0
0
SPLINE
5
104
100
AcDbEntity
8
0
100
AcDbSpline
70
0
71
3
72
8
73
4
74
0
42
0.000000001
43
0.0000000001
44
0.0000000001
40
4
40
4
40
4
40
4
40
5
40
5
40
5
40
5
10
19.091589859113547
20
14.349597932417746
30
0
10
16.330166109958803
20
14.349597932417746
30
0
10
14.091589859113407
20
16.58817418326376
30
0
10
14.091589859113407
20
19.349597932417886
30
0
0
LINE
5
105
100
AcDbEntity
8
0
100
AcDbLine
10
14.091589859113407
20
19.349597932417886
30
0
11
14.091589859113371
21
119.34959794652781
31
0
0
SPLINE
5
106
100
AcDbEntity
8
0
100
AcDbSpline
70
0
71
3
72
8
73
4
74
0
42
0.000000001
43
0.0000000001
44
0.0000000001
40
6
40
6
40
6
40
6
40
7
40
7
40
7
40
7
10
14.091589859113371
20
119.34959794652781
30
0
10
14.091589859113371
20
122.11102169568257
30
0
10
16.330166109958768
20
124.34959794652795
30
0
10
19.091589859113512
20
124.34959794652795
30
0
0
LINE
5
107
100
AcDbEntity
8
0
100
AcDbLine
10
19.091589859113512
20
124.34959794652795
30
0
11
63.72174828891562
21
124.34959794652798
31
0
0
SPLINE
5
108
100
AcDbEntity
8
0
100
AcDbSpline
70
0
71
3
72
8
73
4
74
0
42
0.000000001
43
0.0000000001
44
0.0000000001
40
8
40
8
40
8
40
8
40
9
40
9
40
9
40
9
10
63.72174828891562
20
124.34959794652798
30
0
10
65.930887288238196
20
124.34959794652798
30
0
10
67.721748288915776
20
126.19929757418802
30
0
10
67.721748288915776
20
128.40843657351081
30
0
0
LINE
5
109
100
AcDbEntity
8
0
100
AcDbLine
10
67.721748288915776
20
128.40843657351081
30
0
11
67.721748288915776
21
130.40843731856924
31
0
0
SPLINE
5
110
100
AcDbEntity
8
0
100
AcDbSpline
70
0
71
3
72
8
73
4
74
0
42
0.000000001
43
0.0000000001
44
0.0000000001
40
10
40
10
40
10
40
10
40
11
40
11
40
11
40
11
10
67.721748288915776
20
130.40843731856924
30
0
10
67.721748288915776
20
132.61757631789214
30
0
10
69.512609289592675
20
134.40843731856916
30
0
10
71.721748288915833
20
134.40843731856916
30
0
0
LINE
5
111
100
AcDbEntity
8
0
100
AcDbLine
10
71.721748288915833
20
134.40843731856916
30
0
11
73.721748288915961
21
134.40843731856916
31
0
0
SPLINE
5
112
100
AcDbEntity
8
0
100
AcDbSpline
70
0
71
3
72
8
73
4
74
0
42
0.000000001
43
0.0000000001
44
0.0000000001
40
12
40
12
40
12
40
12
40
13
40
13
40
13
40
13
10
73.721748288915961
20
134.40843731856916
30
0
10
75.930887288239759
20
134.40843731856916
30
0
10
77.721748288914753
20
132.61757631789214
30
0
10
77.721748288914753
20
130.40843731856924
30
0
0
LINE
5
113
100
AcDbEntity
8
0
100
AcDbLine
10
77.721748288914753
20
130.40843731856924
30
0
11
77.721748288914753
21
128.40843657351081
31
0
0
SPLINE
5
114
100
AcDbEntity
8
0
100
AcDbSpline
70
0
71
3
72
8
73
4
74
0
42
0.000000001
43
0.0000000001
44
0.0000000001
40
14
40
14
40
14
40
14
40
15
40
15
40
15
40
15
10
77.721748288914753
20
128.40843657351081
30
0
10
77.721748288914753
20
126.19929757418802
30
0
10
79.512609289591126
20
124.34959794652798
30
0
10
81.721748288914966
20
124.34959794652798
30
0
0
LINE
5
115
100
AcDbEntity
8
0
100
AcDbLine
10
81.721748288914966
20
124.34959794652798
30
0
11
153.09174828891497
21
124.34959794652798
31
0
0
SPLINE
5
116
100
AcDbEntity
8
0
100
AcDbSpline
70
2
71
3
72
14
73
10
74
0
42
0.000000001
43
0.0000000001
44
0.0000000001
40
0
40
0
40
0
40
0
40
1
40
1
40
2
40
2
40
3
40
3
40
4
40
4
40
4
40
4
10
41.773613870530781
20
107.06652229974554
30
0
10
40.945186745784639
20
107.06652229974554
30
0
10
40.273613870531058
20
107.73809517499977
30
0
10
40.273613870531058
20
109.39494942449208
30
0
10
40.945186745784639
20
110.06652229974566
30
0
10
42.60204099527688
20
110.06652229974566
30
0
10
43.273613870531136
20
109.39494942449208
30
0
10
43.273613870531136
20
107.73809517499977
30
0
10
42.60204099527688
20
107.06652229974554
30
0
10
41.773613870530781
20
107.06652229974554
30
0
0
SPLINE
5
117
100
AcDbEntity
8
0
100
AcDbSpline
70
2
71
3
72
14
73
10
74
0
42
0.000000001
43
0.0000000001
44
0.0000000001
40
0
40
0
40
0
40
0
40
1
40
1
40
2
40
2
40
3
40
3
40
4
40
4
40
4
40
4
10
41.773613870530795
20
58.066523394980145
30
0
10
40.94518674578466
20
58.066523394980145
30
0
10
40.273613870531079
20
58.738096270234436
30
0
10
40.273613870531079
20
60.394950519727352
30
0
10
40.94518674578466
20
61.066523394980912
30
0
10
42.602040995276901
20
61.066523394980912
30
0
10
43.273613870531157
20
60.394950519727352
30
0
10
43.273613870531157
20
58.738096270234436
30
0
10
42.602040995276901
20
58.066523394980145
30
0
10
41.773613870530795
20
58.066523394980145
30
0
0
SPLINE
5
118
100
AcDbEntity
8
0
100
AcDbSpline
70
2
71
3
72
14
73
10
74
0
42
0.000000001
43
0.0000000001
44
0.0000000001
40
0
40
0
40
0
40
0
40
1
40
1
40
2
40
2
40
3
40
3
40
4
40
4
40
4
40
4
10
99.773612425120575
20
58.066522482284569
30
0
10
98.945185300375087
20
58.066522482284569
30
0
10
98.27361242512076
20
58.738095357538278
30
0
10
98.27361242512076
20
60.394949607030448
30
0
10
98.945185300375087
20
61.066522482284718
30
0
10
100.6020395498673
20
61.066522482284718
30
0
10
101.27361242512031
20
60.394949607030448
30
0
10
101.27361242512031
20
58.738095357538278
30
0
10
100.6020395498673
20
58.066522482284569
30
0
10
99.773612425120575
20
58.066522482284569
30
0
0
SPLINE
5
119
100
AcDbEntity
8
0
100
AcDbSpline
70
2
71
3
72
14
73
10
74
0
42
0.000000001
43
0.0000000001
44
0.0000000001
40
0
40
0
40
0
40
0
40
1
40
1
40
2
40
2
40
3
40
3
40
4
40
4
40
4
40
4
10
99.773612425120575
20
107.06652321244175
30
0
10
98.945185300375044
20
107.06652321244175
30
0
10
98.27361242512076
20
107.73809608769537
30
0
10
98.27361242512076
20
109.39495033718828
30
0
10
98.945185300375044
20
110.06652321244189
30
0
10
100.60203954986726
20
110.06652321244189
30
0
10
101.27361242512026
20
109.39495033718828
30
0
10
101.27361242512026
20
107.73809608769537
30
0
10
100.60203954986726
20
107.06652321244175
30
0
10
99.773612425120575
20
107.06652321244175
30
0
0
SPLINE
5
120
100
AcDbEntity
8
0
100
AcDbSpline
70
2
71
3
72
14
73
10
74
0
42
0.000000001
43
0.0000000001
44
0.0000000001
40
0
40
0
40
0
40
0
40
1
40
1
40
2
40
2
40
3
40
3
40
4
40
4
40
4
40
4
10
71.278096135900256
20
130.32135084963426
30
0
10
71.278096135900256
20
131.1497779743811
30
0
10
71.949669011153844
20
131.82135084963366
30
0
10
73.606523260647364
20
131.82135084963366
30
0
10
74.278096135900341
20
131.1497779743811
30
0
10
74.278096135900341
20
129.49292372488725
30
0
10
73.606523260647364
20
128.82135084963363
30
0
10
71.949669011153844
20
128.82135084963363
30
0
10
71.278096135900256
20
129.49292372488725
30
0
10
71.278096135900256
20
130.32135084963426
30
0
0
SPLINE
5
121
100
AcDbEntity
8
0
100
AcDbSpline
70
0
71
3
72
8
73
4
74
0
42
0.000000001
43
0.0000000001
44
0.0000000001
40
6
40
6
40
6
40
6
40
7
40
7
40
7
40
7
10
158.09158985911367
20
119.34959794652782
30
0
10
158.09158985911367
20
122.11102169568258
30
0
10
155.85301360826827
20
124.34959794652796
30
0
10
153.0915898591135
20
124.34959794652795
30
0
0
SPLINE
5
122
100
AcDbEntity
8
0
100
AcDbSpline
70
0
71
3
72
8
73
4
74
0
42
0.000000001
43
0.0000000001
44
0.0000000001
40
4
40
4
40
4
40
4
40
5
40
5
40
5
40
5
10
153.09158985911355
20
14.349597932417753
30
0
10
155.8530136082683
20
14.349597932417755
30
0
10
158.0915898591137
20
16.588174183263774
30
0
10
158.0915898591137
20
19.3495979324179
30
0
0
LINE
5
123
100
AcDbEntity
8
0
100
AcDbLine
10
158.09158985911367
20
119.34959794652781
30
0
11
158.0915898591137
21
19.349597932417879
31
0
0
ENDSEC
0
SECTION
2
OBJECTS
0
DICTIONARY
5
C
100
AcDbDictionary
3
ACAD_GROUP
350
D
3
ACAD_MLINESTYLE
350
17
0
DICTIONARY
5
D
100
AcDbDictionary
0
DICTIONARY
5
1A
330
C
100
AcDbDictionary
0
DICTIONARY
5
17
100
AcDbDictionary
0
ENDSEC
0
EOF
