0
SECTION
2
HEADER
9
$INSUNITS
70
4
9
$ACADVER
1
AC1014
9
$HANDSEED
5
FFFF
0
ENDSEC
0
SECTION
2
TABLES
0
TABLE
2
VPORT
5
8
100
AcDbSymbolTable
0
ENDTAB
0
TABLE
2
LTYPE
5
5
100
AcDbSymbolTable
0
LTYPE
5
14
100
AcDbSymbolTableRecord
100
AcDbLinetypeTableRecord
2
BYBLOCK
70
0
0
LTYPE
5
15
100
AcDbSymbolTableRecord
100
AcDbLinetypeTableRecord
2
BYLAYER
70
0
0
ENDTAB
0
TABLE
2
LAYER
5
2
100
AcDbSymbolTable
70
2
0
LAYER
5
50
100
AcDbSymbolTableRecord
100
AcDbLayerTableRecord
2
0
70
0
6
CONTINUOUS
0
ENDTAB
0
TABLE
2
STYLE
5
3
100
AcDbSymbolTable
70
1
0
STYLE
5
11
100
AcDbSymbolTableRecord
100
AcDbTextStyleTableRecord
2
STANDARD
70
0
0
ENDTAB
0
TABLE
2
VIEW
5
6
100
AcDbSymbolTable
70
0
0
ENDTAB
0
TABLE
2
UCS
5
7
100
AcDbSymbolTable
70
0
0
ENDTAB
0
TABLE
2
APPID
5
9
100
AcDbSymbolTable
70
2
0
APPID
5
12
100
AcDbSymbolTableRecord
100
AcDbRegAppTableRecord
2
ACAD
70
0
0
ENDTAB
0
TABLE
2
DIMSTYLE
5
A
100
AcDbSymbolTable
70
1
0
ENDTAB
0
TABLE
2
BLOCK_RECORD
5
1
100
AcDbSymbolTable
70
1
0
BLOCK_RECORD
5
1F
100
AcDbSymbolTableRecord
100
AcDbBlockTableRecord
2
*MODEL_SPACE
0
BLOCK_RECORD
5
1B
100
AcDbSymbolTableRecord
100
AcDbBlockTableRecord
2
*PAPER_SPACE
0
ENDTAB
0
ENDSEC
0
SECTION
2
BLOCKS
0
BLOCK
5
20
100
AcDbEntity
100
AcDbBlockBegin
2
*MODEL_SPACE
0
ENDBLK
5
21
100
AcDbEntity
100
AcDbBlockEnd
0
BLOCK
5
1C
100
AcDbEntity
100
AcDbBlockBegin
2
*PAPER_SPACE
0
ENDBLK
5
1D
100
AcDbEntity
100
AcDbBlockEnd
0
ENDSEC
0
SECTION
2
ENTITIES
0
LWPOLYLINE
5
100
100
AcDbEntity
8
0
100
AcDbPolyline
90
15
70
1
43
0.0
10
-105.00000000261224
20
127.38710568920115
10
104.99999999738776
20
127.38710568920126
10
104.99999999738776
20
-85.76981032023906
10
91.789548204308659
20
-85.769810320239685
42
-0.37099978534669364
10
86.845513788850255
20
-81.515815480250765
42
0.36795422752832291
10
59.905207938267068
20
-58.083124877951192
10
59.905279263990764
20
-58.076470961049871
10
59.905279263990778
20
-53.082383077245467
42
0.0049221360779057467
10
59.314665863151752
20
-53.076568777323843
10
-59.314665868377141
20
-53.076568777323239
42
0.0065012815346012914
10
-60.094720736009336
20
-53.086711918653656
10
-60.094720736009336
20
-58.076470985770143
42
0.37104460913282045
10
-87.330909292419648
20
-81.515036289746178
42
-0.37104460913285953
10
-92.275061217105957
20
-85.769810320243039
10
-105.00000000261224
20
-85.769810320242996
0
CIRCLE
5
101
100
AcDbEntity
8
0
100
AcDbCircle
10
99.343145747887462
20
121.72897123585776
30
0
40
1.5000000000000004
210
-4.0957048566467364e-28
220
-1.5918969497279155e-27
230
1
0
CIRCLE
5
102
100
AcDbEntity
8
0
100
AcDbCircle
10
-99.343145753135232
20
121.73025209594908
30
0
40
1.5000000000000004
210
-4.0957048566467364e-28
220
-1.5918969497279155e-27
230
1
0
LWPOLYLINE
5
103
100
AcDbEntity
8
0
100
AcDbPolyline
90
8
70
1
43
0.0
10
-61.290810737885757
20
19.121538166687515
42
-0.41421356237310325
10
-64.79081073788754
20
15.621538166689229
10
-71.386533283417435
20
15.621538166692503
42
-0.41421356237308593
10
-72.386533283416938
20
16.621538166693
10
-72.386533283409335
20
31.843685741266018
42
-0.41421356237309204
10
-68.886533283407644
20
35.343685741264323
10
-64.790810737877734
20
35.343685741262213
42
-0.41421356237309509
10
-61.290810737879447
20
31.843685741260511
0
LWPOLYLINE
5
104
100
AcDbEntity
8
0
100
AcDbPolyline
90
8
70
1
43
0.0
10
79.390626385934866
20
35.343685741190583
10
64.390626385934766
20
35.343685741198087
42
0.41421356237308793
10
60.890626385933061
20
31.84368574119982
10
60.89062638592678
20
19.121538166626813
42
0.4142135623730937
10
64.390626385924961
20
15.621538166625051
10
79.39062638592506
20
15.621538166617642
42
0.41421356237308943
10
82.890626385926765
20
19.121538166615814
10
82.890626385933075
20
31.843685741188917
42
0.41421356237308088
0
CIRCLE
5
105
100
AcDbEntity
8
0
100
AcDbCircle
10
-33.094720736009336
20
-17.076569958557091
30
0
40
1.6000000000000003
210
0
220
-0
230
1
0
CIRCLE
5
106
100
AcDbEntity
8
0
100
AcDbCircle
10
-33.094720736009336
20
12.923429057081464
30
0
40
1.6000000000000003
210
0
220
-0
230
1
0
CIRCLE
5
107
100
AcDbEntity
8
0
100
AcDbCircle
10
97.999999997387278
20
-55.826727465669194
30
0
40
1.5000000000000002
210
2.8357131504220739e-41
220
-1.6155871338926322e-27
230
1
0
CIRCLE
5
108
100
AcDbEntity
8
0
100
AcDbCircle
10
14.905279263990662
20
-35.076569367940316
30
0
40
1.6000000000000003
210
0
220
-0
230
1
0
CIRCLE
5
109
100
AcDbEntity
8
0
100
AcDbCircle
10
-24.594720736009343
20
81.32342681273748
30
0
40
2.0250000000000004
210
-2.076757357430145e-48
220
-1.6155871338926322e-27
230
1
0
CIRCLE
5
110
100
AcDbEntity
8
0
100
AcDbCircle
10
14.905279263990662
20
30.923428466464689
30
0
40
1.6000000000000003
210
0
220
-0
230
1
0
CIRCLE
5
111
100
AcDbEntity
8
0
100
AcDbCircle
10
-15.094720736009339
20
-35.076569367940316
30
0
40
1.6000000000000003
210
0
220
-0
230
1
0
CIRCLE
5
112
100
AcDbEntity
8
0
100
AcDbCircle
10
-0.094720736009293871
20
-4.0765703851137136
30
0
40
4.25
210
1.2037062152420224e-35
220
-1.5473037202776891e-56
230
1
0
CIRCLE
5
113
100
AcDbEntity
8
0
100
AcDbCircle
10
32.905279263990764
20
12.923429057081464
30
0
40
1.6000000000000003
210
0
220
-0
230
1
0
CIRCLE
5
114
100
AcDbEntity
8
0
100
AcDbCircle
10
-77.394720736009333
20
32.423428417246555
30
0
40
2.0250000000000004
210
-2.076757357430145e-48
220
-1.6155871338926322e-27
230
1
0
CIRCLE
5
115
100
AcDbEntity
8
0
100
AcDbCircle
10
-98.00000000261285
20
-55.826727465669194
30
0
40
1.5000000000000002
210
2.8357131504220739e-41
220
-1.6155871338926322e-27
230
1
0
CIRCLE
5
116
100
AcDbEntity
8
0
100
AcDbCircle
10
32.905279263990764
20
-17.076569958557091
30
0
40
1.6000000000000003
210
0
220
-0
230
1
0
CIRCLE
5
117
100
AcDbEntity
8
0
100
AcDbCircle
10
-43.774720736009336
20
81.32342681273748
30
0
40
2.0250000000000004
210
-2.076757357430145e-48
220
-1.6155871338926322e-27
230
1
0
CIRCLE
5
118
100
AcDbEntity
8
0
100
AcDbCircle
10
-15.094720736009339
20
30.923428466464689
30
0
40
1.6000000000000003
210
0
220
-0
230
1
0
CIRCLE
5
119
100
AcDbEntity
8
0
100
AcDbCircle
10
-77.394720736009333
20
51.603427787911514
30
0
40
2.0250000000000004
210
-2.076757357430145e-48
220
-1.6155871338926322e-27
230
1
0
ENDSEC
0
SECTION
2
OBJECTS
0
DICTIONARY
5
C
100
AcDbDictionary
3
ACAD_GROUP
350
D
3
ACAD_MLINESTYLE
350
17
0
DICTIONARY
5
D
100
AcDbDictionary
0
DICTIONARY
5
1A
330
C
100
AcDbDictionary
0
DICTIONARY
5
17
100
AcDbDictionary
0
ENDSEC
0
EOF
