0
SECTION
2
HEADER
9
$INSUNITS
70
4
9
$ACADVER
1
AC1014
9
$HANDSEED
5
FFFF
0
ENDSEC
0
SECTION
2
TABLES
0
TABLE
2
VPORT
5
8
100
AcDbSymbolTable
0
ENDTAB
0
TABLE
2
LTYPE
5
5
100
AcDbSymbolTable
0
LTYPE
5
14
100
AcDbSymbolTableRecord
100
AcDbLinetypeTableRecord
2
BYBLOCK
70
0
0
LTYPE
5
15
100
AcDbSymbolTableRecord
100
AcDbLinetypeTableRecord
2
BYLAYER
70
0
0
ENDTAB
0
TABLE
2
LAYER
5
2
100
AcDbSymbolTable
70
2
0
LAYER
5
50
100
AcDbSymbolTableRecord
100
AcDbLayerTableRecord
2
0
70
0
6
CONTINUOUS
0
ENDTAB
0
TABLE
2
STYLE
5
3
100
AcDbSymbolTable
70
1
0
STYLE
5
11
100
AcDbSymbolTableRecord
100
AcDbTextStyleTableRecord
2
STANDARD
70
0
0
ENDTAB
0
TABLE
2
VIEW
5
6
100
AcDbSymbolTable
70
0
0
ENDTAB
0
TABLE
2
UCS
5
7
100
AcDbSymbolTable
70
0
0
ENDTAB
0
TABLE
2
APPID
5
9
100
AcDbSymbolTable
70
2
0
APPID
5
12
100
AcDbSymbolTableRecord
100
AcDbRegAppTableRecord
2
ACAD
70
0
0
ENDTAB
0
TABLE
2
DIMSTYLE
5
A
100
AcDbSymbolTable
70
1
0
ENDTAB
0
TABLE
2
BLOCK_RECORD
5
1
100
AcDbSymbolTable
70
1
0
BLOCK_RECORD
5
1F
100
AcDbSymbolTableRecord
100
AcDbBlockTableRecord
2
*MODEL_SPACE
0
BLOCK_RECORD
5
1B
100
AcDbSymbolTableRecord
100
AcDbBlockTableRecord
2
*PAPER_SPACE
0
ENDTAB
0
ENDSEC
0
SECTION
2
BLOCKS
0
BLOCK
5
20
100
AcDbEntity
100
AcDbBlockBegin
2
*MODEL_SPACE
0
ENDBLK
5
21
100
AcDbEntity
100
AcDbBlockEnd
0
BLOCK
5
1C
100
AcDbEntity
100
AcDbBlockBegin
2
*PAPER_SPACE
0
ENDBLK
5
1D
100
AcDbEntity
100
AcDbBlockEnd
0
ENDSEC
0
SECTION
2
ENTITIES
0
LINE
5
100
100
AcDbEntity
8
0
100
AcDbLine
10
-97.707692645623041
20
-37.509185754706991
30
0
11
-101.5000032930346
21
-40.568237056754981
31
0
0
LINE
5
101
100
AcDbEntity
8
0
100
AcDbLine
10
-101.5000032930346
20
-40.568237056754981
30
0
11
-101.50000328159706
21
-86.98670003478675
31
0
0
SPLINE
5
102
100
AcDbEntity
8
0
100
AcDbSpline
70
0
71
3
72
17
73
13
74
0
42
0.000000001
43
0.0000000001
44
0.0000000001
40
-1.5707963267949001
40
-1.5707963267949001
40
-1.5707963267949001
40
-1.5707963267949001
40
-0.89819226256882234
40
-0.89819226256882234
40
-0.89819226256882234
40
-0.25492195405563944
40
-0.25492195405563944
40
-0.25492195405563944
40
-0.15240107641026135
40
-0.15240107641026135
40
-0.15240107641026135
40
-2.6090786319487101e-16
40
-2.6090786319487101e-16
40
-2.6090786319487101e-16
40
-2.6090786319487101e-16
10
-101.50000328159705
20
-86.98670003478675
30
0
10
-101.50000328077934
20
-90.306230869731579
30
0
10
-100.43342155639624
20
-93.537862415133773
30
0
10
-98.516543941222707
20
-96.103652192817719
30
0
10
-96.689658650439284
20
-98.548984939670973
30
0
10
-94.157133440099429
20
-100.28904852909405
30
0
10
-91.376138755429267
20
-101.0669989614904
30
0
10
-90.932919144596468
20
-101.19098441525435
30
0
10
-90.483463380272283
20
-101.2906342434986
30
0
10
-90.029603697229646
20
-101.36505142802038
30
0
10
-89.36009003699489
20
-101.47482835568113
30
0
10
-88.677631081320968
20
-101.53049508349133
30
0
10
-88.000003278013594
20
-101.53049508332441
30
0
0
LINE
5
103
100
AcDbEntity
8
0
100
AcDbLine
10
-88.000003278013594
20
-101.53049508332438
30
0
11
88.000003328028555
21
-101.53049503996914
31
0
0
SPLINE
5
104
100
AcDbEntity
8
0
100
AcDbSpline
70
0
71
3
72
17
73
13
74
0
42
0.000000001
43
0.0000000001
44
0.0000000001
40
2.6090786319487101e-16
40
2.6090786319487101e-16
40
2.6090786319487101e-16
40
2.6090786319487101e-16
40
0.1524010658861584
40
0.1524010658861584
40
0.1524010658861584
40
0.76005621687825464
40
0.76005621687825464
40
0.76005621687825464
40
0.89819225923143875
40
0.89819225923143875
40
0.89819225923143875
40
1.5707963267949001
40
1.5707963267949001
40
1.5707963267949001
40
1.5707963267949001
10
88.000003328028612
20
-101.53049503996911
30
0
10
88.677631084542284
20
-101.53049503980219
30
0
10
89.354968400845848
20
-101.47566808984648
30
0
10
90.029603747163108
20
-101.36505138366515
30
0
10
92.740270648900378
20
-100.92059639644583
30
0
10
95.254996600948402
20
-99.592128639336607
30
0
10
97.245243943557469
20
-97.580771014259838
30
0
10
97.697679656087999
20
-97.123536377753624
30
0
10
98.122871678649673
20
-96.630592613290844
30
0
10
98.516543988564109
20
-96.103652144281213
30
0
10
100.44009839413226
20
-93.528925309021233
30
0
10
101.50000332526467
20
-90.306230836196335
30
0
10
101.50000332444696
20
-86.986699984780387
30
0
0
LINE
5
105
100
AcDbEntity
8
0
100
AcDbLine
10
101.50000332444696
20
-86.986699984780387
30
0
11
101.50000331301544
21
-40.568237006748774
31
0
0
LINE
5
106
100
AcDbEntity
8
0
100
AcDbLine
10
101.50000331301544
20
-40.568237006748774
30
0
11
97.707692664096584
21
-37.509185706569149
31
0
0
SPLINE
5
107
100
AcDbEntity
8
0
100
AcDbSpline
70
0
71
3
72
11
73
7
74
0
42
0.000000001
43
0.0000000001
44
0.0000000001
40
-0.78539816339744895
40
-0.78539816339744895
40
-0.78539816339744895
40
-0.78539816339744895
40
-0.30088377366157804
40
-0.30088377366157804
40
-0.30088377366157804
40
-3.0363930771330702e-16
40
-3.0363930771330702e-16
40
-3.0363930771330702e-16
40
-3.0363930771330702e-16
10
97.70769266409657
20
-37.509185706569149
30
0
10
93.159864678536451
20
-33.84069955125193
30
0
10
89.670300803736012
20
-29.204315863897406
30
0
10
87.721477529159529
20
-24.137823095446716
30
0
10
86.510738156058821
20
-20.990178894806736
30
0
10
85.884297337371564
20
-17.665918722331352
30
0
10
85.884297336554752
20
-14.350134290517778
30
0
0
LINE
5
108
100
AcDbEntity
8
0
100
AcDbLine
10
85.884297336554752
20
-14.350134290517779
30
0
11
85.884297319057183
21
56.681323214558539
31
0
0
SPLINE
5
109
100
AcDbEntity
8
0
100
AcDbSpline
70
0
71
3
72
11
73
7
74
0
42
0.000000001
43
0.0000000001
44
0.0000000001
40
0
40
0
40
0
40
0
40
0.45848070187974971
40
0.45848070187974971
40
0.45848070187974971
40
0.78539816339744795
40
0.78539816339744795
40
0.78539816339744795
40
0.78539816339744795
10
85.884297319057168
20
56.681323214558539
30
0
10
85.884297317814102
20
61.727486125734323
30
0
10
87.35919520635521
20
66.797467392509645
30
0
10
90.094630617902411
20
71.266895657666481
30
0
10
92.048462540392563
20
74.459261883123759
30
0
10
94.636446523590934
20
77.362966984452086
30
0
10
97.707692635189062
20
79.840374636434646
30
0
0
LINE
5
110
100
AcDbEntity
8
0
100
AcDbLine
10
97.707692635189062
20
79.840374636434646
30
0
11
101.5000032826099
21
82.899425938489642
31
0
0
LINE
5
111
100
AcDbEntity
8
0
100
AcDbLine
10
101.5000032826099
20
82.899425938489642
30
0
11
101.50000327669372
21
106.92023156602444
31
0
0
LINE
5
112
100
AcDbEntity
8
0
100
AcDbLine
10
101.50000327669372
20
106.92023156602444
30
0
11
-101.5000033293763
21
106.92023151601823
31
0
0
LINE
5
113
100
AcDbEntity
8
0
100
AcDbLine
10
-101.5000033293763
20
106.92023151601823
30
0
11
-101.50000332345812
21
82.899425888483464
31
0
0
LINE
5
114
100
AcDbEntity
8
0
100
AcDbLine
10
-101.50000332345812
20
82.899425888483464
30
0
11
-97.707692674530264
21
79.840374588296839
31
0
0
SPLINE
5
115
100
AcDbEntity
8
0
100
AcDbSpline
70
0
71
3
72
11
73
7
74
0
42
0.000000001
43
0.0000000001
44
0.0000000001
40
-0.78539816339744795
40
-0.78539816339744795
40
-0.78539816339744795
40
-0.78539816339744795
40
-0.45848070196837637
40
-0.45848070196837637
40
-0.45848070196837637
40
0
40
0
40
0
40
0
10
-97.707692674530264
20
79.840374588296839
30
0
10
-94.636446562544236
20
77.362966938499
30
0
10
-92.045122904221557
20
74.453805145869552
30
0
10
-90.094630653019792
20
71.266895613279416
30
0
10
-87.363870900889282
20
66.805106913572445
30
0
10
-85.884297348231513
20
61.727486084397007
30
0
10
-85.884297346988546
20
56.681323172245669
30
0
0
LINE
5
116
100
AcDbEntity
8
0
100
AcDbLine
10
-85.884297346988561
20
56.681323172245669
30
0
11
-85.884297329490948
21
-14.350134332830553
31
0
0
SPLINE
5
117
100
AcDbEntity
8
0
100
AcDbSpline
70
0
71
3
72
11
73
7
74
0
42
0.000000001
43
0.0000000001
44
0.0000000001
40
3.0363930771330702e-16
40
3.0363930771330702e-16
40
3.0363930771330702e-16
40
3.0363930771330702e-16
40
0.30088377366033386
40
0.30088377366033386
40
0.30088377366033386
40
0.78539816339744895
40
0.78539816339744895
40
0.78539816339744895
40
0.78539816339744895
10
-85.884297329490948
20
-14.35013433283056
30
0
10
-85.884297328674137
20
-17.665918764630426
30
0
10
-86.511256793739733
20
-20.991527303111464
30
0
10
-87.721477517273598
20
-24.137823138664622
30
0
10
-89.669465966161184
20
-29.202145559573054
30
0
10
-93.159864661858535
20
-33.840699597139761
30
0
10
-97.707692645622927
20
-37.509185754706984
30
0
0
ENDSEC
0
SECTION
2
OBJECTS
0
DICTIONARY
5
C
100
AcDbDictionary
3
ACAD_GROUP
350
D
3
ACAD_MLINESTYLE
350
17
0
DICTIONARY
5
D
100
AcDbDictionary
0
DICTIONARY
5
1A
330
C
100
AcDbDictionary
0
DICTIONARY
5
17
100
AcDbDictionary
0
ENDSEC
0
EOF
