0
SECTION
2
HEADER
9
$INSUNITS
70
4
9
$ACADVER
1
AC1014
9
$HANDSEED
5
FFFF
0
ENDSEC
0
SECTION
2
TABLES
0
TABLE
2
VPORT
5
8
100
AcDbSymbolTable
0
ENDTAB
0
TABLE
2
LTYPE
5
5
100
AcDbSymbolTable
0
LTYPE
5
14
100
AcDbSymbolTableRecord
100
AcDbLinetypeTableRecord
2
BYBLOCK
70
0
0
LTYPE
5
15
100
AcDbSymbolTableRecord
100
AcDbLinetypeTableRecord
2
BYLAYER
70
0
0
ENDTAB
0
TABLE
2
LAYER
5
2
100
AcDbSymbolTable
70
2
0
LAYER
5
50
100
AcDbSymbolTableRecord
100
AcDbLayerTableRecord
2
0
70
0
6
CONTINUOUS
0
ENDTAB
0
TABLE
2
STYLE
5
3
100
AcDbSymbolTable
70
1
0
STYLE
5
11
100
AcDbSymbolTableRecord
100
AcDbTextStyleTableRecord
2
STANDARD
70
0
0
ENDTAB
0
TABLE
2
VIEW
5
6
100
AcDbSymbolTable
70
0
0
ENDTAB
0
TABLE
2
UCS
5
7
100
AcDbSymbolTable
70
0
0
ENDTAB
0
TABLE
2
APPID
5
9
100
AcDbSymbolTable
70
2
0
APPID
5
12
100
AcDbSymbolTableRecord
100
AcDbRegAppTableRecord
2
ACAD
70
0
0
ENDTAB
0
TABLE
2
DIMSTYLE
5
A
100
AcDbSymbolTable
70
1
0
ENDTAB
0
TABLE
2
BLOCK_RECORD
5
1
100
AcDbSymbolTable
70
1
0
BLOCK_RECORD
5
1F
100
AcDbSymbolTableRecord
100
AcDbBlockTableRecord
2
*MODEL_SPACE
0
BLOCK_RECORD
5
1B
100
AcDbSymbolTableRecord
100
AcDbBlockTableRecord
2
*PAPER_SPACE
0
ENDTAB
0
ENDSEC
0
SECTION
2
BLOCKS
0
BLOCK
5
20
100
AcDbEntity
100
AcDbBlockBegin
2
*MODEL_SPACE
0
ENDBLK
5
21
100
AcDbEntity
100
AcDbBlockEnd
0
BLOCK
5
1C
100
AcDbEntity
100
AcDbBlockBegin
2
*PAPER_SPACE
0
ENDBLK
5
1D
100
AcDbEntity
100
AcDbBlockEnd
0
ENDSEC
0
SECTION
2
ENTITIES
0
LINE
5
100
100
AcDbEntity
8
0
100
AcDbLine
10
-41.04744672641359
20
145.52201249299179
30
4.4408920985006262e-15
11
41.134583291927107
21
145.52201249282606
31
4.4408920985006262e-15
0
ARC
5
101
100
AcDbEntity
8
0
100
AcDbCircle
10
41.13458329188677
20
125.52201249282602
30
-4.4408920985006262e-15
40
20
210
-3.1391733647138639e-28
220
-5.5511151231257839e-17
230
1
100
AcDbArc
50
0
51
89.999999999884437
0
LINE
5
102
100
AcDbEntity
8
0
100
AcDbLine
10
61.13458329188677
20
125.52201249278568
30
-4.4408920984965872e-15
11
61.134583291823844
21
94.318344750869329
31
1.1102230246251565e-14
0
LINE
5
103
100
AcDbEntity
8
0
100
AcDbLine
10
61.134583291823844
20
94.318344750869329
30
1.1102230246251565e-14
11
77.862549065086952
21
94.318344750835593
31
4.4408920985006262e-15
0
LINE
5
104
100
AcDbEntity
8
0
100
AcDbLine
10
77.862549065086952
20
94.318344750835593
30
4.4408920985006262e-15
11
79.493171354132201
21
93.106340307652687
31
0
0
LINE
5
105
100
AcDbEntity
8
0
100
AcDbLine
10
79.493171354132201
20
93.106340307652687
30
0
11
82.286660788438169
21
87.737482173120497
31
8.3266726846886741e-15
0
SPLINE
5
106
100
AcDbEntity
8
0
100
AcDbSpline
70
0
71
3
72
10
73
6
74
0
42
0.000000001
43
0.0000000001
44
0.0000000001
40
-1.8618451127898525
40
-1.8618451127898525
40
-1.8618451127898525
40
-1.8618451127898525
40
-0.98311563479181618
40
-0.98311563479181618
40
0
40
0
40
0
40
0
10
94.463110785369722
20
73.970042083952578
30
-4.4408920985006262e-15
10
91.957386924038275
20
75.464743327944944
30
4.4408920985006262e-15
10
89.731420149309542
20
77.412203099236265
30
4.4408920985006262e-15
10
85.627707170592146
20
82.052112316772536
30
-4.4408920985006262e-15
10
83.799255121452347
20
84.830399622773101
30
1.7763568394002505e-14
10
82.286660788438127
20
87.737482173120526
30
1.3322676295501878e-14
0
LINE
5
107
100
AcDbEntity
8
0
100
AcDbLine
10
94.463110785369722
20
73.970042083952578
30
-4.4408920985006262e-15
11
111.04356828261248
21
73.970042083919353
31
-4.4408920985006262e-15
0
LINE
5
108
100
AcDbEntity
8
0
100
AcDbLine
10
111.04356828261248
20
73.970042083919353
30
-4.4408920985006262e-15
11
111.043568282915
21
223.97004208391951
31
1.3322676295501878e-14
0
LINE
5
109
100
AcDbEntity
8
0
100
AcDbLine
10
111.043568282915
20
223.97004208391951
30
1.3322676295501878e-14
11
-110.95643171708501
21
223.97004208436715
31
1.3322676295469567e-14
0
LINE
5
110
100
AcDbEntity
8
0
100
AcDbLine
10
-110.95643171708501
20
223.97004208436715
30
1.3322676295469567e-14
11
-110.9564317173875
21
73.970042084366952
31
-4.4408920985006262e-15
0
LINE
5
111
100
AcDbEntity
8
0
100
AcDbLine
10
-110.9564317173875
20
73.970042084366952
30
-4.4408920985006262e-15
11
-94.375381325608913
21
73.970042084333471
31
1.3322676295505917e-14
0
SPLINE
5
112
100
AcDbEntity
8
0
100
AcDbSpline
70
0
71
3
72
10
73
6
74
0
42
0.000000001
43
0.0000000001
44
0.0000000001
40
-1.8618451127899027
40
-1.8618451127899027
40
-1.8618451127899027
40
-1.8618451127899027
40
-0.98311563479184694
40
-0.98311563479184694
40
0
40
0
40
0
40
0
10
-94.375381325608899
20
73.970042084333471
30
-4.4408920985006262e-15
10
-91.869657464271398
20
75.464743328315748
30
4.4408920985006262e-15
10
-89.643690689534765
20
77.412203099598116
30
0
10
-85.539977710798723
20
82.052112317117775
30
0
10
-83.711525661647741
20
84.830399623110893
30
1.7763568394002505e-14
10
-82.19893132862174
20
87.737482173452307
30
-4.4408920985006262e-15
0
LINE
5
113
100
AcDbEntity
8
0
100
AcDbLine
10
-82.19893132862174
20
87.737482173452307
30
-4.4408920985006262e-15
11
-79.405441894294114
21
93.106340307973227
31
1.8318679906315083e-14
0
LINE
5
114
100
AcDbEntity
8
0
100
AcDbLine
10
-79.405441894294114
20
93.106340307973227
30
1.8318679906315083e-14
11
-77.774819605244076
21
94.318344751149539
31
-8.9511731360403246e-15
0
LINE
5
115
100
AcDbEntity
8
0
100
AcDbLine
10
-77.774819605244076
20
94.318344751149539
30
-8.9511731360403246e-15
11
-61.04744672651676
21
94.318344751115802
31
-4.4408920985006262e-15
0
LINE
5
116
100
AcDbEntity
8
0
100
AcDbLine
10
-61.04744672651676
20
94.318344751115802
30
-4.4408920985006262e-15
11
-61.04744672645392
21
125.52201249303209
31
-4.4408920985006262e-15
0
ARC
5
117
100
AcDbEntity
8
0
100
AcDbCircle
10
-41.04744672645392
20
125.52201249299179
30
4.4408920985006262e-15
40
20
210
-2.0193821008220991e-28
220
4.0723043247906219e-40
230
1
100
AcDbArc
50
89.999999999884452
51
180
0
ENDSEC
0
SECTION
2
OBJECTS
0
DICTIONARY
5
C
100
AcDbDictionary
3
ACAD_GROUP
350
D
3
ACAD_MLINESTYLE
350
17
0
DICTIONARY
5
D
100
AcDbDictionary
0
DICTIONARY
5
1A
330
C
100
AcDbDictionary
0
DICTIONARY
5
17
100
AcDbDictionary
0
ENDSEC
0
EOF
