0
SECTION
2
HEADER
9
$INSUNITS
70
4
9
$ACADVER
1
AC1014
9
$HANDSEED
5
FFFF
0
ENDSEC
0
SECTION
2
TABLES
0
TABLE
2
VPORT
5
8
100
AcDbSymbolTable
0
ENDTAB
0
TABLE
2
LTYPE
5
5
100
AcDbSymbolTable
0
LTYPE
5
14
100
AcDbSymbolTableRecord
100
AcDbLinetypeTableRecord
2
BYBLOCK
70
0
0
LTYPE
5
15
100
AcDbSymbolTableRecord
100
AcDbLinetypeTableRecord
2
BYLAYER
70
0
0
ENDTAB
0
TABLE
2
LAYER
5
2
100
AcDbSymbolTable
70
2
0
LAYER
5
50
100
AcDbSymbolTableRecord
100
AcDbLayerTableRecord
2
0
70
0
6
CONTINUOUS
0
ENDTAB
0
TABLE
2
STYLE
5
3
100
AcDbSymbolTable
70
1
0
STYLE
5
11
100
AcDbSymbolTableRecord
100
AcDbTextStyleTableRecord
2
STANDARD
70
0
0
ENDTAB
0
TABLE
2
VIEW
5
6
100
AcDbSymbolTable
70
0
0
ENDTAB
0
TABLE
2
UCS
5
7
100
AcDbSymbolTable
70
0
0
ENDTAB
0
TABLE
2
APPID
5
9
100
AcDbSymbolTable
70
2
0
APPID
5
12
100
AcDbSymbolTableRecord
100
AcDbRegAppTableRecord
2
ACAD
70
0
0
ENDTAB
0
TABLE
2
DIMSTYLE
5
A
100
AcDbSymbolTable
70
1
0
ENDTAB
0
TABLE
2
BLOCK_RECORD
5
1
100
AcDbSymbolTable
70
1
0
BLOCK_RECORD
5
1F
100
AcDbSymbolTableRecord
100
AcDbBlockTableRecord
2
*MODEL_SPACE
0
BLOCK_RECORD
5
1B
100
AcDbSymbolTableRecord
100
AcDbBlockTableRecord
2
*PAPER_SPACE
0
ENDTAB
0
ENDSEC
0
SECTION
2
BLOCKS
0
BLOCK
5
20
100
AcDbEntity
100
AcDbBlockBegin
2
*MODEL_SPACE
0
ENDBLK
5
21
100
AcDbEntity
100
AcDbBlockEnd
0
BLOCK
5
1C
100
AcDbEntity
100
AcDbBlockBegin
2
*PAPER_SPACE
0
ENDBLK
5
1D
100
AcDbEntity
100
AcDbBlockEnd
0
ENDSEC
0
SECTION
2
ENTITIES
0
LINE
5
100
100
AcDbEntity
8
0
100
AcDbLine
10
-110.95613527006797
20
99.519969407494031
30
3.5527136788005009e-14
11
111.04386472993394
21
99.519969407043178
31
3.5527136787940386e-14
0
LINE
5
101
100
AcDbEntity
8
0
100
AcDbLine
10
111.04386472993394
20
99.519969407043178
30
3.5527136787940386e-14
11
111.04386473019757
21
229.51996940704291
31
4.4408920985006262e-14
0
SPLINE
5
102
100
AcDbEntity
8
0
100
AcDbSpline
70
0
71
3
72
23
73
19
74
0
42
0.000000001
43
0.0000000001
44
0.0000000001
40
-0.70325965258270395
40
-0.70325965258270395
40
-0.70325965258270395
40
-0.70325965258270395
40
-0.53044456751469027
40
-0.53044456751469027
40
-0.53044456751469027
40
-0.45536947965404612
40
-0.45536947965404612
40
-0.45536947965404612
40
-0.37958601217361532
40
-0.37958601217361532
40
-0.37958601217361532
40
-0.31578845090794899
40
-0.31578845090794899
40
-0.31578845090794899
40
-0.219419261988339
40
-0.219419261988339
40
-0.219419261988339
40
0
40
0
40
0
40
0
10
111.04386473019757
20
229.51996940704316
30
3.5527136788005009e-14
10
111.04386473020325
20
232.32342674610089
30
-3.5527136788005009e-14
10
111.04386473020892
20
235.12688408515859
30
3.5527136788005009e-14
10
111.04386473021462
20
237.93034142421644
30
0
10
111.04386473021707
20
239.14823166777072
30
0
10
111.04386473021961
20
240.38851117868973
30
0
10
111.04386473022201
20
241.57639731882057
30
3.5527136788005009e-14
10
111.04386473022444
20
242.77549189514878
30
3.5527136788005009e-14
10
111.04386473022655
20
243.81404709656852
30
0
10
111.04386473022828
20
244.67649235450517
30
0
10
111.04386473022977
20
245.40253335013122
30
-3.5527136788005009e-14
10
111.04386473023101
20
246.01795401192567
30
0
10
111.0438647302321
20
246.54540251493839
30
-3.5527136788005009e-14
10
111.04386473023371
20
247.34213805504052
30
0
10
111.04784429357254
20
247.93817554818216
30
3.5527136788005009e-14
10
111.04251795493738
20
248.41158458498455
30
0
10
111.03039062144487
20
249.48947122736837
30
3.5527136788005009e-14
10
110.98619429671442
20
249.93100432789532
30
3.5527136788005009e-14
10
110.90845593328143
20
250.65825882826744
30
0
0
SPLINE
5
103
100
AcDbEntity
8
0
100
AcDbSpline
70
0
71
3
72
22
73
18
74
0
42
0.000000001
43
0.0000000001
44
0.0000000001
40
-1.99392501856769
40
-1.99392501856769
40
-1.99392501856769
40
-1.99392501856769
40
-1.87963468488237
40
-1.87963468488237
40
-1.5637793577366199
40
-1.5637793577366199
40
-1.27808396432541
40
-1.27808396432541
40
-0.99238857091419697
40
-0.99238857091419697
40
-0.73450556375583198
40
-0.73450556375583198
40
-0.476622556597466
40
-0.476622556597466
40
-0.238311278298733
40
-0.238311278298733
40
0
40
0
40
0
40
0
10
110.90845593328142
20
250.65825882826832
30
0
10
110.85549695751141
20
251.14095694886217
30
3.5527136788005009e-14
10
110.78623454407938
20
251.62718778732523
30
3.5527136788005009e-14
10
110.46465211808808
20
253.445945965644
30
-3.5527136788005009e-14
10
110.09867522958973
20
254.75794202198645
30
3.5527136788005009e-14
10
109.26564269942321
20
256.9719305646658
30
0
10
108.74144850168449
20
258.08794629628221
30
-3.5527136788005009e-14
10
107.47956403697474
20
260.18968344120304
30
0
10
106.74100242612177
20
261.17488157614548
30
0
10
105.30186409530396
20
262.75539090483733
30
0
10
104.48507653532148
20
263.51075030924744
30
3.5527136788005009e-14
10
102.70770610967716
20
264.82399184231292
30
0
10
101.74657771170527
20
265.38113547487745
30
0
10
99.968145642490128
20
266.18390531832404
30
0
10
98.996271628764589
20
266.51733808747099
30
-3.5527136788005009e-14
10
97.002734163787366
20
266.95349438753084
30
3.5527136788005009e-14
10
95.980993149812775
20
267.05586332736834
30
0
10
95.043864730272674
20
267.05586332737033
30
0
0
LINE
5
104
100
AcDbEntity
8
0
100
AcDbLine
10
95.043864730272674
20
267.05586332737033
30
-1.3124563006851669e-29
11
-94.956135269727213
21
267.05586332775522
31
3.5527136788005009e-14
0
SPLINE
5
105
100
AcDbEntity
8
0
100
AcDbSpline
70
0
71
3
72
22
73
18
74
0
42
0.000000001
43
0.0000000001
44
0.0000000001
40
-1.9939250185679001
40
-1.9939250185679001
40
-1.9939250185679001
40
-1.9939250185679001
40
-1.87963468488257
40
-1.87963468488257
40
-1.56377935773678
40
-1.56377935773678
40
-1.2780839643255499
40
-1.2780839643255499
40
-0.99238857091430299
40
-0.99238857091430299
40
-0.73450556375590903
40
-0.73450556375590903
40
-0.47662255659751601
40
-0.47662255659751601
40
-0.23831127829875801
40
-0.23831127829875801
40
0
40
0
40
0
40
0
10
-110.82072647280248
20
250.65825882871795
30
0
10
-110.7677674970305
20
251.14095694931154
30
-3.5527136788005009e-14
10
-110.69850508359652
20
251.62718778777435
30
0
10
-110.37692265759785
20
253.44594596609261
30
-3.5527136788005009e-14
10
-110.01094576909416
20
254.75794202243279
30
0
10
-109.17791323891869
20
256.97193056510872
30
0
10
-108.65371904117541
20
258.08794629672389
30
0
10
-107.39183457645717
20
260.18968344163943
30
-3.5527136788005009e-14
10
-106.65327296560015
20
261.17488157657817
30
-3.5527136788005009e-14
10
-105.21413463477595
20
262.75539090526422
30
0
10
-104.39734707479042
20
263.51075030967098
30
0
10
-102.61997664914077
20
264.82399184272924
30
0
10
-101.65884825116663
20
265.38113547528985
30
0
10
-99.880416181948192
20
266.18390531872933
30
0
10
-98.908542168221317
20
266.5173380878723
30
3.5527136788005009e-14
10
-96.915004703242346
20
266.95349438792414
30
0
10
-95.893263689267329
20
267.05586332775744
30
0
10
-94.956135269727213
20
267.05586332775556
30
0
0
SPLINE
5
106
100
AcDbEntity
8
0
100
AcDbSpline
70
0
71
3
72
23
73
19
74
0
42
0.000000001
43
0.0000000001
44
0.0000000001
40
-0.70325965258270495
40
-0.70325965258270495
40
-0.70325965258270495
40
-0.70325965258270495
40
-0.53044456750584035
40
-0.53044456750584035
40
-0.53044456750584035
40
-0.45536947961827795
40
-0.45536947961827795
40
-0.45536947961827795
40
-0.37958601212111009
40
-0.37958601212111009
40
-0.37958601212111009
40
-0.31578845090794899
40
-0.31578845090794899
40
-0.31578845090794899
40
-0.219419261988341
40
-0.219419261988341
40
-0.219419261988341
40
0
40
0
40
0
40
0
10
-110.95613526980435
20
229.51996940749339
30
3.5527136788005009e-14
10
-110.95613526979866
20
232.32342674669451
30
0
10
-110.95613526979299
20
235.12688408589642
30
-3.5527136788005009e-14
10
-110.9561352697873
20
237.93034142509799
30
0
10
-110.95613526978484
20
239.14823166908889
30
3.5527136788005009e-14
10
-110.95613526978229
20
240.38851118047677
30
0
10
-110.95613526977991
20
241.57639732096303
30
0
10
-110.95613526977746
20
242.77549189748498
30
3.5527136788005009e-14
10
-110.95613526977537
20
243.81404709883714
30
0
10
-110.95613526977363
20
244.67649235674776
30
0
10
-110.95613526977215
20
245.4025333515942
30
-3.5527136788005009e-14
10
-110.9561352697709
20
246.01795401280958
30
0
10
-110.95613526976982
20
246.54540251538839
30
3.5527136788005009e-14
10
-110.9561352697682
20
247.34213805549064
30
0
10
-110.96011483310464
20
247.93817554863227
30
0
10
-110.95478849446752
20
248.41158458543498
30
0
10
-110.94266116097062
20
249.48947122781931
30
3.5527136788005009e-14
10
-110.89846483623845
20
249.9310043283451
30
0
10
-110.82072647280249
20
250.65825882871701
30
3.5527136788005009e-14
0
LINE
5
107
100
AcDbEntity
8
0
100
AcDbLine
10
-110.95613526980435
20
229.51996940749339
30
3.5527136788005009e-14
11
-110.95613527006797
21
99.519969407494031
31
3.5527136788005009e-14
0
ENDSEC
0
SECTION
2
OBJECTS
0
DICTIONARY
5
C
100
AcDbDictionary
3
ACAD_GROUP
350
D
3
ACAD_MLINESTYLE
350
17
0
DICTIONARY
5
D
100
AcDbDictionary
0
DICTIONARY
5
1A
330
C
100
AcDbDictionary
0
DICTIONARY
5
17
100
AcDbDictionary
0
ENDSEC
0
EOF
