0
SECTION
2
HEADER
9
$INSUNITS
70
4
9
$ACADVER
1
AC1014
9
$HANDSEED
5
FFFF
0
ENDSEC
0
SECTION
2
TABLES
0
TABLE
2
VPORT
5
8
100
AcDbSymbolTable
0
ENDTAB
0
TABLE
2
LTYPE
5
5
100
AcDbSymbolTable
0
LTYPE
5
14
100
AcDbSymbolTableRecord
100
AcDbLinetypeTableRecord
2
BYBLOCK
70
0
0
LTYPE
5
15
100
AcDbSymbolTableRecord
100
AcDbLinetypeTableRecord
2
BYLAYER
70
0
0
ENDTAB
0
TABLE
2
LAYER
5
2
100
AcDbSymbolTable
70
2
0
LAYER
5
50
100
AcDbSymbolTableRecord
100
AcDbLayerTableRecord
2
0
70
0
6
CONTINUOUS
0
ENDTAB
0
TABLE
2
STYLE
5
3
100
AcDbSymbolTable
70
1
0
STYLE
5
11
100
AcDbSymbolTableRecord
100
AcDbTextStyleTableRecord
2
STANDARD
70
0
0
ENDTAB
0
TABLE
2
VIEW
5
6
100
AcDbSymbolTable
70
0
0
ENDTAB
0
TABLE
2
UCS
5
7
100
AcDbSymbolTable
70
0
0
ENDTAB
0
TABLE
2
APPID
5
9
100
AcDbSymbolTable
70
2
0
APPID
5
12
100
AcDbSymbolTableRecord
100
AcDbRegAppTableRecord
2
ACAD
70
0
0
ENDTAB
0
TABLE
2
DIMSTYLE
5
A
100
AcDbSymbolTable
70
1
0
ENDTAB
0
TABLE
2
BLOCK_RECORD
5
1
100
AcDbSymbolTable
70
1
0
BLOCK_RECORD
5
1F
100
AcDbSymbolTableRecord
100
AcDbBlockTableRecord
2
*MODEL_SPACE
0
BLOCK_RECORD
5
1B
100
AcDbSymbolTableRecord
100
AcDbBlockTableRecord
2
*PAPER_SPACE
0
ENDTAB
0
ENDSEC
0
SECTION
2
BLOCKS
0
BLOCK
5
20
100
AcDbEntity
100
AcDbBlockBegin
2
*MODEL_SPACE
0
ENDBLK
5
21
100
AcDbEntity
100
AcDbBlockEnd
0
BLOCK
5
1C
100
AcDbEntity
100
AcDbBlockBegin
2
*PAPER_SPACE
0
ENDBLK
5
1D
100
AcDbEntity
100
AcDbBlockEnd
0
ENDSEC
0
SECTION
2
ENTITIES
0
LWPOLYLINE
5
100
100
AcDbEntity
8
0
100
AcDbPolyline
90
10
70
1
43
0.0
10
67.816083937202222
20
141.56948171205477
10
67.967451591564469
20
141.75106551700989
42
0.99999999999999989
10
61.822477250716268
20
146.87349563857498
10
59.880470267427569
20
144.54382343244421
10
45.352318805918095
20
127.11702917394122
42
0.0054521803412021551
10
45.297181701090203
20
127.04940536941201
10
45.174579355629803
20
126.90232903081829
42
0.99999999999999989
10
51.31955369647801
20
121.77989890925321
10
65.996735951432996
20
139.38695380551303
10
67.80763122621002
20
141.5591568023803
42
0.00083393025732824203
0
LWPOLYLINE
5
101
100
AcDbEntity
8
0
100
AcDbPolyline
90
7
70
1
43
0.0
10
90.082333176163147
20
168.27810352357542
10
106.73184608303956
20
188.24792375220426
42
0.99999999999999989
10
100.58721013712156
20
193.37091406049726
10
100.47554573554712
20
193.23698113177781
42
0.0053078056449968204
10
100.4204644101025
20
193.17231818875678
10
85.706689779212525
20
175.52286540478161
10
83.937697230245163
20
173.40109383186842
42
0.99999999999999989
0
CIRCLE
5
102
100
AcDbEntity
8
0
100
AcDbCircle
10
34.649342190693282
20
316.09382721886971
30
0
40
2.5
210
-3.6760426989466474e-29
220
-0
230
1
0
ARC
5
103
100
AcDbEntity
8
0
100
AcDbCircle
10
226.04496173785395
20
93.776357355630338
30
1.7763568394002404e-14
40
81.502325833856446
210
8.7751606638146611e-29
220
5.2411712679202736e-29
230
1
100
AcDbArc
50
186.95267332038284
51
211.03885082061768
0
LINE
5
104
100
AcDbEntity
8
0
100
AcDbLine
10
145.14196505943747
20
83.910545438700439
30
1.7763568394010018e-14
11
129.01830713722728
21
216.12999724945468
31
0
0
ARC
5
105
100
AcDbEntity
8
0
100
AcDbCircle
10
95.262331102690339
20
212.01358470230412
30
0
40
34.00604020321348
210
-2.4445742246190068e-29
220
2.0046335977186371e-28
230
1
100
AcDbArc
50
6.9526733203824955
51
43.219347168685871
0
LINE
5
106
100
AcDbEntity
8
0
100
AcDbLine
10
120.04380556784996
20
235.30069043992668
30
-2.6781478642935835e-27
11
38.561906372076535
21
331.59538141481283
31
-3.2311742677852644e-26
0
LINE
5
107
100
AcDbEntity
8
0
100
AcDbLine
10
38.561906372076535
20
331.59538141481283
30
-3.2311742677852644e-26
11
37.898298632247418
21
332.34346213698348
31
0
0
LINE
5
108
100
AcDbEntity
8
0
100
AcDbLine
10
37.898298632247418
20
332.34346213698348
30
0
11
-43.584655070559997
21
260.06153167306701
31
0
0
ARC
5
109
100
AcDbEntity
8
0
100
AcDbCircle
10
-36.948577669760738
20
252.58072444853514
30
0
40
10.000000000000327
210
-5.2833532125256528e-43
220
-4.6867590357236795e-43
230
1
100
AcDbArc
50
131.57560345951558
51
151.68922956027683
0
LINE
5
110
100
AcDbEntity
8
0
100
AcDbLine
10
-45.752459860008152
20
257.32326157334973
30
1.8963206344413503e-27
11
-67.957083071852452
21
216.10336562081469
31
0
0
ARC
5
111
100
AcDbEntity
8
0
100
AcDbCircle
10
-84.440718506943398
20
223.81891892845397
30
3.8115318229635024e-42
40
18.200000000000117
210
-1.7706403378460971e-28
220
-1.4009735577861938e-28
230
1
100
AcDbArc
50
186.8275208687358
51
334.91695040193554
0
LINE
5
112
100
AcDbEntity
8
0
100
AcDbLine
10
-102.51165358205851
20
221.65528644788378
30
-3.502831848064286e-27
11
-105.84787832824142
21
221.82304609068993
31
1.2621774483536189e-28
0
LINE
5
113
100
AcDbEntity
8
0
100
AcDbLine
10
-105.84787832824142
20
221.82304609068993
30
1.2621774483536189e-28
11
-124.98645825137584
21
221.82673591858565
31
3.9245830034745337e-28
0
SPLINE
5
114
100
AcDbEntity
8
0
100
AcDbSpline
70
0
71
3
72
10
73
6
74
0
42
0.000000001
43
0.0000000001
44
0.0000000001
40
-2.58425221724753
40
-2.58425221724753
40
-2.58425221724753
40
-2.58425221724753
40
-0.62447959441335199
40
-0.62447959441335199
40
0
40
0
40
0
40
0
10
-124.98645825137581
20
221.82673591858571
30
0
10
-126.77722851655423
20
215.54440501331655
30
0
10
-128.5679987817316
20
209.26207410803841
30
0
10
-130.92939620837433
20
200.97788471674303
30
1.7763568394002505e-14
10
-131.50554874047026
20
198.97759071714438
30
1.7763568394002505e-14
10
-132.07065067524121
20
196.97416723974439
30
0
0
SPLINE
5
115
100
AcDbEntity
8
0
100
AcDbSpline
70
0
71
3
72
16
73
12
74
0
42
0.000000001
43
0.0000000001
44
0.0000000001
40
-5.0696547085944399
40
-5.0696547085944399
40
-5.0696547085944399
40
-5.0696547085944399
40
-4.8073581779629802
40
-4.8073581779629802
40
-4.1959432624959501
40
-4.1959432624959501
40
-2.9826875005985598
40
-2.9826875005985598
40
-0.51554471813283198
40
-0.51554471813283198
40
0
40
0
40
0
40
0
10
-132.07065067524121
20
196.97416723974541
30
0
10
-132.66648278393535
20
194.88388545229782
30
1.7763568394002505e-14
10
-132.9727106589441
20
193.66572270695957
30
0
10
-134.12029494750743
20
188.90942318621529
30
1.7763568394002505e-14
10
-134.77512348753487
20
185.55641243131635
30
0
10
-136.26763792418592
20
175.44732297953342
30
0
10
-136.62988169591534
20
168.73213065066324
30
0
10
-135.91131903414419
20
148.13474421757843
30
0
10
-132.96456287661644
20
134.0792228613663
30
0
10
-126.74937389237388
20
115.96033166726403
30
0
10
-126.10175093688477
20
114.15715235829379
30
0
10
-124.58453212970868
20
110.26085416981262
30
0
0
LINE
5
116
100
AcDbEntity
8
0
100
AcDbLine
10
-124.58453212970868
20
110.2608541698126
30
0
11
-115.00890529434497
21
84.173224603937271
31
0
0
ARC
5
117
100
AcDbEntity
8
0
100
AcDbCircle
10
-39.908260390384456
20
111.73938383966204
30
0
40
80.000000000000639
210
-6.9586769050112715e-29
220
1.8958068070918264e-28
230
1
100
AcDbArc
50
200.15597583669552
51
269.98532242484538
0
LINE
5
118
100
AcDbEntity
8
0
100
AcDbLine
10
-39.928754151172868
20
31.739386464626026
30
1.5165027864493201e-26
11
-14.412490250672931
21
31.732849911804131
31
-5.3248111102418297e-29
0
LINE
5
119
100
AcDbEntity
8
0
100
AcDbLine
10
-14.412490250672931
20
31.732849911804131
30
-5.3248111102418297e-29
11
56.618967262023787
21
31.732849910902964
31
1.7763568394005139e-14
0
SPLINE
5
120
100
AcDbEntity
8
0
100
AcDbSpline
70
0
71
3
72
10
73
6
74
0
42
0.000000001
43
0.0000000001
44
0.0000000001
40
-0.076922827317840364
40
-0.076922827317840364
40
-0.076922827317840364
40
-0.076922827317840364
40
-0.038465093489831667
40
-0.038465093489831667
40
-8.3385142740088902e-06
40
-8.3385142740088902e-06
40
-8.3385142740088902e-06
40
-8.3385142740088902e-06
10
56.618967262023972
20
31.732849910902967
30
0
10
56.747159791295047
20
31.732849910901333
30
0
10
56.875345132741273
20
31.731320378339639
30
0
10
57.131654322877509
20
31.725222758558051
30
0
10
57.259764597531529
20
31.720655070993566
30
0
10
57.387809727993968
20
31.714579665040098
30
0
0
LINE
5
121
100
AcDbEntity
8
0
100
AcDbLine
10
57.387836588334586
20
31.714456677166009
30
0
11
57.390411337577554
21
31.714456017587299
31
-8.6787218118949816e-32
0
SPLINE
5
122
100
AcDbEntity
8
0
100
AcDbSpline
70
0
71
3
72
14
73
10
74
0
42
0.000000001
43
0.0000000001
44
0.0000000001
40
-1.90198246289136
40
-1.90198246289136
40
-1.90198246289136
40
-1.90198246289136
40
-1.6816173325180299
40
-1.6816173325180299
40
-1.40134777709836
40
-1.40134777709836
40
-1.1210782216786901
40
-1.1210782216786901
40
-2.2204460492503101e-16
40
-2.2204460492503101e-16
40
-2.2204460492503101e-16
40
-2.2204460492503101e-16
10
57.390411337577554
20
31.714456017587295
30
0
10
58.333142445542599
20
31.669575229980783
30
0
10
59.263167601554542
20
31.543406019848277
30
0
10
61.325282745279132
20
31.093173330000504
30
0
10
62.435702368924595
20
30.724516745391458
30
0
10
64.54812773721838
20
29.796857385955779
30
-1.7763568394002505e-14
10
65.539368234596822
20
29.243939644023463
30
0
10
70.169163810942919
20
26.190199257668265
30
0
10
72.87157295394239
20
22.813164998056536
30
0
10
74.911725553476771
20
19.361335792375407
30
0
0
LINE
5
123
100
AcDbEntity
8
0
100
AcDbLine
10
74.911725553476785
20
19.361335792375407
30
0
11
78.04851437397835
21
14.054056687306261
31
1.0097419586828951e-27
0
ARC
5
124
100
AcDbEntity
8
0
100
AcDbCircle
10
86.657304090774147
20
19.142154525594421
30
-1.6815581571897805e-43
40
10.000000000000096
210
7.5596452411371411e-29
220
7.0546598738046657e-29
230
1
100
AcDbArc
50
210.58458251678397
51
269.99999999943543
0
LINE
5
125
100
AcDbEntity
8
0
100
AcDbLine
10
86.657304090675609
20
9.1421545255944086
30
5.6051938572992683e-44
11
104.3578752812349
21
9.1421545254199614
31
6.4451535586313932e-28
0
LINE
5
126
100
AcDbEntity
8
0
100
AcDbLine
10
104.3578752812349
20
9.1421545254199614
30
6.4451535586313932e-28
11
104.35787528123493
21
9.1447162453122193
31
0
0
LINE
5
127
100
AcDbEntity
8
0
100
AcDbLine
10
104.35787528123493
20
9.1447162453122193
30
0
11
136.74084867746126
21
9.1447162449014279
31
1.7763568394002173e-14
0
LINE
5
128
100
AcDbEntity
8
0
100
AcDbLine
10
136.74084867746126
20
9.1447162449014279
30
1.7763568394002173e-14
11
144.04601930614771
21
25.173092557716657
31
-4.0389678347315804e-27
0
LINE
5
129
100
AcDbEntity
8
0
100
AcDbLine
10
144.04600653682277
20
25.173098390445205
30
0
11
151.36461730544494
21
41.15995700585971
31
-4.0389678347315804e-27
0
LINE
5
130
100
AcDbEntity
8
0
100
AcDbLine
10
151.36461730544494
20
41.15995700585971
30
-4.0389678347315804e-27
11
151.36886675461068
21
41.125123230531521
31
0
0
LINE
5
131
100
AcDbEntity
8
0
100
AcDbLine
10
151.36886675461068
20
41.125123230531521
30
0
11
156.21231256857502
21
51.752194944839715
31
1.7763568394010734e-14
0
LWPOLYLINE
5
132
100
AcDbEntity
8
0
100
AcDbPolyline
90
4
70
1
43
0.0
10
71.352163169895988
20
242.27355559377816
10
45.48113020061411
20
272.90607671378399
42
0.9943221642378498
10
39.094716208464042
20
267.44975664556341
10
64.904028249461078
20
236.89031600980528
42
0.99432216991608868
0
ENDSEC
0
SECTION
2
OBJECTS
0
DICTIONARY
5
C
100
AcDbDictionary
3
ACAD_GROUP
350
D
3
ACAD_MLINESTYLE
350
17
0
DICTIONARY
5
D
100
AcDbDictionary
0
DICTIONARY
5
1A
330
C
100
AcDbDictionary
0
DICTIONARY
5
17
100
AcDbDictionary
0
ENDSEC
0
EOF
