0
SECTION
2
HEADER
9
$INSUNITS
70
4
9
$ACADVER
1
AC1014
9
$HANDSEED
5
FFFF
0
ENDSEC
0
SECTION
2
TABLES
0
TABLE
2
VPORT
5
8
100
AcDbSymbolTable
0
ENDTAB
0
TABLE
2
LTYPE
5
5
100
AcDbSymbolTable
0
LTYPE
5
14
100
AcDbSymbolTableRecord
100
AcDbLinetypeTableRecord
2
BYBLOCK
70
0
0
LTYPE
5
15
100
AcDbSymbolTableRecord
100
AcDbLinetypeTableRecord
2
BYLAYER
70
0
0
ENDTAB
0
TABLE
2
LAYER
5
2
100
AcDbSymbolTable
70
2
0
LAYER
5
50
100
AcDbSymbolTableRecord
100
AcDbLayerTableRecord
2
0
70
0
6
CONTINUOUS
0
ENDTAB
0
TABLE
2
STYLE
5
3
100
AcDbSymbolTable
70
1
0
STYLE
5
11
100
AcDbSymbolTableRecord
100
AcDbTextStyleTableRecord
2
STANDARD
70
0
0
ENDTAB
0
TABLE
2
VIEW
5
6
100
AcDbSymbolTable
70
0
0
ENDTAB
0
TABLE
2
UCS
5
7
100
AcDbSymbolTable
70
0
0
ENDTAB
0
TABLE
2
APPID
5
9
100
AcDbSymbolTable
70
2
0
APPID
5
12
100
AcDbSymbolTableRecord
100
AcDbRegAppTableRecord
2
ACAD
70
0
0
ENDTAB
0
TABLE
2
DIMSTYLE
5
A
100
AcDbSymbolTable
70
1
0
ENDTAB
0
TABLE
2
BLOCK_RECORD
5
1
100
AcDbSymbolTable
70
1
0
BLOCK_RECORD
5
1F
100
AcDbSymbolTableRecord
100
AcDbBlockTableRecord
2
*MODEL_SPACE
0
BLOCK_RECORD
5
1B
100
AcDbSymbolTableRecord
100
AcDbBlockTableRecord
2
*PAPER_SPACE
0
ENDTAB
0
ENDSEC
0
SECTION
2
BLOCKS
0
BLOCK
5
20
100
AcDbEntity
100
AcDbBlockBegin
2
*MODEL_SPACE
0
ENDBLK
5
21
100
AcDbEntity
100
AcDbBlockEnd
0
BLOCK
5
1C
100
AcDbEntity
100
AcDbBlockBegin
2
*PAPER_SPACE
0
ENDBLK
5
1D
100
AcDbEntity
100
AcDbBlockEnd
0
ENDSEC
0
SECTION
2
ENTITIES
0
LWPOLYLINE
5
100
100
AcDbEntity
8
0
100
AcDbPolyline
90
10
70
1
43
0.0
10
-67.967451591565279
20
141.75106551700904
10
-67.816083937203032
20
141.56948171205391
42
0.00083393025712854435
10
-67.807631226210844
20
141.55915680237945
10
-65.996735951433806
20
139.38695380551218
10
-51.319553696478827
20
121.77989890925238
42
0.99999999999999989
10
-45.17457935563062
20
126.90232903081744
10
-45.297181701090963
20
127.04940536941122
42
0.0054521803413192559
10
-45.352318805919012
20
127.11702917394028
10
-59.880470267428379
20
144.54382343244339
10
-61.822477250717085
20
146.87349563857413
42
0.99999999999999989
0
LWPOLYLINE
5
101
100
AcDbEntity
8
0
100
AcDbPolyline
90
7
70
1
43
0.0
10
-106.73184608304038
20
188.24792375220343
10
-90.082333176163957
20
168.2781035235746
42
0.99999999999999989
10
-83.937697230245959
20
173.40109383186757
10
-85.706689779213349
20
175.52286540478079
10
-100.42046441010331
20
193.17231818875595
42
0.0053078056448791497
10
-100.4755457355482
20
193.23698113177673
10
-100.58721013712238
20
193.3709140604964
42
0.99999999999999989
0
CIRCLE
5
102
100
AcDbEntity
8
0
100
AcDbCircle
10
-34.649342190766106
20
316.09382721887414
30
1.7763568394002505e-14
40
2.5
210
-9.9967272203392091e-34
220
-0
230
1
0
ARC
5
103
100
AcDbEntity
8
0
100
AcDbCircle
10
-226.04496173792978
20
93.776357355629457
30
1.0761972206014595e-41
40
81.502325833855195
210
-2.505791997148302e-29
220
3.0557177807739337e-30
230
1
100
AcDbArc
50
328.96114917941026
51
353.0473266796173
0
LINE
5
104
100
AcDbEntity
8
0
100
AcDbLine
10
-156.2123125686314
20
51.752194944873516
30
1.8782749145816177e-27
11
-151.36886675461076
21
41.125123230531393
31
1.7763568394002505e-14
0
LINE
5
105
100
AcDbEntity
8
0
100
AcDbLine
10
-151.36886675461076
20
41.125123230531393
30
1.7763568394002505e-14
11
-151.36461730544499
21
41.159957005859589
31
0
0
LINE
5
106
100
AcDbEntity
8
0
100
AcDbLine
10
-151.36461730544499
20
41.159957005859589
30
0
11
-144.04600653682289
21
25.17309839044519
31
0
0
LINE
5
107
100
AcDbEntity
8
0
100
AcDbLine
10
-144.04601930614785
20
25.17309255771664
30
0
11
-136.74084867746132
21
9.1447162449013071
31
0
0
LINE
5
108
100
AcDbEntity
8
0
100
AcDbLine
10
-136.74084867746132
20
9.1447162449013071
30
0
11
-104.35787528123497
21
9.144716245312102
31
-3.0198371445110847e-31
0
LINE
5
109
100
AcDbEntity
8
0
100
AcDbLine
10
-104.35787528123497
20
9.144716245312102
30
-3.0198371445110847e-31
11
-104.35787528123495
21
9.1421545254198424
31
-1.7763568394002505e-14
0
LINE
5
110
100
AcDbEntity
8
0
100
AcDbLine
10
-104.35787528123495
20
9.1421545254198424
30
-1.7763568394002505e-14
11
-86.657304090675666
21
9.1421545255942167
31
-9.1595445517873915e-32
0
ARC
5
111
100
AcDbEntity
8
0
100
AcDbCircle
10
-86.657304090774232
20
19.142154525594279
30
0
40
10.000000000000062
210
9.0269397598269679e-44
220
-9.159544551787334e-33
230
1
100
AcDbArc
50
270.0000000005648
51
329.41541748321617
0
LINE
5
112
100
AcDbEntity
8
0
100
AcDbLine
10
-78.048514373978492
20
14.054056687306177
30
0
11
-74.911725553476842
21
19.361335792375289
31
-1.7763568394002505e-14
0
SPLINE
5
113
100
AcDbEntity
8
0
100
AcDbSpline
70
0
71
3
72
14
73
10
74
0
42
0.000000001
43
0.0000000001
44
0.0000000001
40
-1.90198246289136
40
-1.90198246289136
40
-1.90198246289136
40
-1.90198246289136
40
-1.6816173325180299
40
-1.6816173325180299
40
-1.40134777709836
40
-1.40134777709836
40
-1.1210782216786901
40
-1.1210782216786901
40
-2.2204460492503101e-16
40
-2.2204460492503101e-16
40
-2.2204460492503101e-16
40
-2.2204460492503101e-16
10
-57.390411337577603
20
31.714456017587178
30
1.7763568394002505e-14
10
-58.333142445542663
20
31.669575229980662
30
1.7763568394002505e-14
10
-59.263167601554599
20
31.543406019848156
30
0
10
-61.325282745279196
20
31.09317333000039
30
1.7763568394002505e-14
10
-62.435702368924659
20
30.724516745391341
30
1.7763568394002505e-14
10
-64.548127737218437
20
29.796857385955654
30
-1.7763568394002505e-14
10
-65.539368234596878
20
29.243939644023339
30
-1.7763568394002505e-14
10
-70.169163810942976
20
26.190199257668141
30
-1.7763568394002505e-14
10
-72.871572953942433
20
22.813164998056411
30
-1.7763568394002505e-14
10
-74.911725553476842
20
19.361335792375282
30
0
0
LINE
5
114
100
AcDbEntity
8
0
100
AcDbLine
10
-57.390411337577603
20
31.714456017587178
30
1.7763568394002505e-14
11
-57.387828477775848
21
31.71445667924359
31
1.7763568394002505e-14
0
SPLINE
5
115
100
AcDbEntity
8
0
100
AcDbSpline
70
0
71
3
72
10
73
6
74
0
42
0.000000001
43
0.0000000001
44
0.0000000001
40
0
40
0
40
0
40
0
40
0.038457352849502441
40
0.038457352849502441
40
0.076914856969686099
40
0.076914856969686099
40
0.076914856969686099
40
0.076914856969686099
10
-56.618967262024036
20
31.732849910902843
30
0
10
-56.747158438189047
20
31.732849910901205
30
0
10
-56.875342426754059
20
31.731320410628612
30
0
10
-57.131652678986015
20
31.725222829751971
30
1.7763568394002505e-14
10
-57.25976536652049
20
31.720655059516641
30
0
10
-57.387812907430046
20
31.714579514183782
30
1.7763568394002505e-14
0
LINE
5
116
100
AcDbEntity
8
0
100
AcDbLine
10
-56.618967262024036
20
31.732849910902843
30
0
11
14.41249025067286
21
31.73284991180401
31
-9.3379864676863364e-31
0
LINE
5
117
100
AcDbEntity
8
0
100
AcDbLine
10
14.41249025067286
20
31.73284991180401
30
-9.3379864676863364e-31
11
39.928754151172789
21
31.739386464625881
31
0
0
ARC
5
118
100
AcDbEntity
8
0
100
AcDbCircle
10
39.908260390384378
20
111.73938383966191
30
0
40
80.000000000000014
210
0
220
0
230
1
100
AcDbArc
50
270.01467757515462
51
339.84402416330454
0
LINE
5
119
100
AcDbEntity
8
0
100
AcDbLine
10
115.0089052943443
20
84.173224603937371
30
0
11
124.58453212970859
21
110.26085416981249
31
0
0
SPLINE
5
120
100
AcDbEntity
8
0
100
AcDbSpline
70
0
71
3
72
16
73
12
74
0
42
0.000000001
43
0.0000000001
44
0.0000000001
40
-5.0696547085914796
40
-5.0696547085914796
40
-5.0696547085914796
40
-5.0696547085914796
40
-4.80735817796017
40
-4.80735817796017
40
-4.1959432624934898
40
-4.1959432624934898
40
-2.9826875005968199
40
-2.9826875005968199
40
-0.51554471813253
40
-0.51554471813253
40
0
40
0
40
0
40
0
10
132.07065067524115
20
196.9741672397453
30
0
10
132.66648278393529
20
194.88388545229768
30
0
10
132.97271065894404
20
193.66572270695946
30
0
10
134.12029494750738
20
188.90942318621524
30
0
10
134.77512348753481
20
185.55641243131629
30
0
10
136.26763792418583
20
175.44732297953328
30
0
10
136.62988169591529
20
168.73213065066312
30
-1.7763568394002505e-14
10
135.9113190341441
20
148.13474421757829
30
0
10
132.96456287661636
20
134.07922286136619
30
0
10
126.74937389237382
20
115.96033166726392
30
0
10
126.1017509368847
20
114.15715235829366
30
0
10
124.58453212970861
20
110.26085416981252
30
0
0
SPLINE
5
121
100
AcDbEntity
8
0
100
AcDbSpline
70
0
71
3
72
10
73
6
74
0
42
0.000000001
43
0.0000000001
44
0.0000000001
40
-2.58425221724753
40
-2.58425221724753
40
-2.58425221724753
40
-2.58425221724753
40
-0.62447959441335199
40
-0.62447959441335199
40
0
40
0
40
0
40
0
10
124.98645825137574
20
221.8267359185856
30
0
10
126.77722851655416
20
215.54440501331641
30
0
10
128.56799878173155
20
209.26207410803829
30
0
10
130.92939620837424
20
200.97788471674292
30
0
10
131.50554874047018
20
198.9775907171443
30
0
10
132.07065067524115
20
196.97416723974428
30
0
0
LINE
5
122
100
AcDbEntity
8
0
100
AcDbLine
10
124.98645825137574
20
221.8267359185856
30
0
11
105.84787832824135
21
221.82304609068984
31
0
0
LINE
5
123
100
AcDbEntity
8
0
100
AcDbLine
10
105.84787832824135
20
221.82304609068984
30
0
11
102.51165358205785
21
221.65528644788373
31
0
0
ARC
5
124
100
AcDbEntity
8
0
100
AcDbCircle
10
84.440718506943313
20
223.8189189284538
30
1.7763568394002505e-14
40
18.200000000000102
210
8.5612284716240209e-29
220
-1.8290349813673938e-28
230
1
100
AcDbArc
50
205.08304959806446
51
353.17247913126437
0
LINE
5
125
100
AcDbEntity
8
0
100
AcDbLine
10
67.957083071852509
20
216.1033656208146
30
1.7763568394002505e-14
11
45.75245986000801
21
257.32326157334961
31
0
0
ARC
5
126
100
AcDbEntity
8
0
100
AcDbCircle
10
36.94857766976132
20
252.58072444853559
30
0
40
9.9999999999990923
210
0
220
-0
230
1
100
AcDbArc
50
28.31077043972228
51
48.424396540485141
0
LINE
5
127
100
AcDbEntity
8
0
100
AcDbLine
10
43.584655070559705
20
260.06153167306667
30
0
11
-37.898298632324284
21
332.34346213698331
31
-1.7763568394002505e-14
0
LINE
5
128
100
AcDbEntity
8
0
100
AcDbLine
10
-37.898298632324284
20
332.34346213698331
30
-1.7763568394002505e-14
11
-38.56190637215326
21
331.59538141481272
31
0
0
LINE
5
129
100
AcDbEntity
8
0
100
AcDbLine
10
-38.56190637215326
20
331.59538141481272
30
0
11
-120.04380556792688
21
235.30069043992575
31
0
0
ARC
5
130
100
AcDbEntity
8
0
100
AcDbCircle
10
-95.262331102767206
20
212.01358470230292
30
-1.7763568394002505e-14
40
34.006040203213708
210
3.806669981559109e-16
220
-3.5771207436975197e-16
230
1
100
AcDbArc
50
136.78065283131389
51
173.04732667961588
0
LINE
5
131
100
AcDbEntity
8
0
100
AcDbLine
10
-129.01830713730408
20
216.12999724945445
30
-1.7763568393992906e-14
11
-145.14196505951452
21
83.910545438699955
31
2.0574079531172296e-27
0
LWPOLYLINE
5
132
100
AcDbEntity
8
0
100
AcDbPolyline
90
4
70
1
43
0.0
10
-45.481130200571741
20
272.90607671383304
10
-71.352163169932837
20
242.27355559373342
42
0.99432216990920108
10
-64.904028249461192
20
236.89031600980491
10
-39.094716208464163
20
267.44975664556335
42
0.99432216423014796
0
ENDSEC
0
SECTION
2
OBJECTS
0
DICTIONARY
5
C
100
AcDbDictionary
3
ACAD_GROUP
350
D
3
ACAD_MLINESTYLE
350
17
0
DICTIONARY
5
D
100
AcDbDictionary
0
DICTIONARY
5
1A
330
C
100
AcDbDictionary
0
DICTIONARY
5
17
100
AcDbDictionary
0
ENDSEC
0
EOF
